{"title":"Gnana Kirukkan (2014) Tamil DVDRip 1CDRip 700MB [SReeJoN]","uid":11666631,"size":739093240,"categoryP":"video","categoryS":"movies","magnet":"?xt=urn:btih:94c13347cf092aad80f823e29114def7fd44820a&amp;dn=Gnana+Kirukkan+%282014%29+Tamil+DVDRip+1CDRip+700MB+%5BSReeJoN%5D&amp;tr=udp%3A%2F%2Ftracker.openbittorrent.com%3A80&amp;tr=udp%3A%2F%2Fopen.demonii.com%3A1337&amp;tr=udp%3A%2F%2Ftracker.coppersurfer.tk%3A6969&amp;tr=udp%3A%2F%2Fexodus.desync.com%3A6969","seeders":0,"leechers":1,"uploader":"siretgr","files":-1,"time":1418066651,"description":"Media Info\n\n\nGeneral\nComplete name                    : E:Gnana Kirukkan (2014) Tamil DVDRip 1CDRip 700MB [SReeJoN]Gnana Kirukkan (2014) Tamil DVDRip 1CDRip 700MB [SReeJoN].avi\nFormat                           : AVI\nFormat/Info                      : Audio Video Interleave\nFile size                        : 705 MiB\nDuration                         : 2h 29mn\nOverall bit rate                 : 658 Kbps\n\nVideo\nID                               : 0\nFormat                           : MPEG-4 Visual\nFormat profile                   : Advanced Simple@L5\nFormat settings, BVOP            : 2\nFormat settings, QPel            : No\nFormat settings, GMC             : No warppoints\nFormat settings, Matrix          : Default (H.263)\nCodec ID                         : XVID\nCodec ID/Hint                    : XviD\nDuration                         : 2h 29mn\nBit rate                         : 556 Kbps\nWidth                            : 608 pixels\nHeight                           : 256 pixels\nDisplay aspect ratio             : 2.35:1\nFrame rate                       : 24.000 fps\nColor space                      : YUV\nChroma subsampling               : 4:2:0\nBit depth                        : 8 bits\nScan type                        : Progressive\nCompression mode                 : Lossy\nBits/(Pixel*Frame)               : 0.149\nStream size                      : 596 MiB (85%)\nWriting library                  : XviD 1.2.1 (UTC 2008-12-04)\n\nAudio\nID                               : 1\nFormat                           : MPEG Audio\nFormat version                   : Version 1\nFormat profile                   : Layer 3\nMode                             : Joint stereo\nCodec ID                         : 55\nCodec ID/Hint                    : MP3\nDuration                         : 2h 29mn\nBit rate mode                    : Constant\nBit rate                         : 96.0 Kbps\nChannel(s)                       : 2 channels\nSampling rate                    : 48.0 KHz\nCompression mode                 : Lossy\nStream size                      : 103 MiB (15%)\nAlignment                        : Aligned on interleaves\nInterleave, duration             : 167 ms (4.00 video frames)\nInterleave, preload duration     : 216 ms\nTitle                            : GnanaKirukkan","torrent":{"xt":"urn:btih:94c13347cf092aad80f823e29114def7fd44820a","amp;dn":"Gnana+Kirukkan+%282014%29+Tamil+DVDRip+1CDRip+700MB+%5BSReeJoN%5D","amp;tr":["udp%3A%2F%2Ftracker.openbittorrent.com%3A80","udp%3A%2F%2Fopen.demonii.com%3A1337","udp%3A%2F%2Ftracker.coppersurfer.tk%3A6969","udp%3A%2F%2Fexodus.desync.com%3A6969"],"infoHash":"94c13347cf092aad80f823e29114def7fd44820a","infoHashBuffer":{"type":"Buffer","data":[148,193,51,71,207,9,42,173,128,248,35,226,145,20,222,247,253,68,130,10]},"announce":[],"urlList":[]}}